<svg id="svg" xmlns="http://www.w3.org/2000/svg" xmlns:xlink="http://www.w3.org/1999/xlink" width="400" height="400" viewBox="0, 0, 400,400">
  <path id="path0" d="M347.266 0.896 C 346.406 1.363,334.747 12.658,321.356 25.997 L 297.008 50.248 293.208 47.810 C 275.047 36.156,249.243 33.373,228.139 40.793 C 214.049 45.746,207.115 50.905,186.185 72.006 C 169.684 88.642,168.206 91.307,171.407 98.658 C 172.832 101.931,298.859 227.775,301.809 228.871 C 304.965 230.043,309.128 229.878,312.112 228.462 C 315.797 226.713,346.651 195.165,350.645 189.063 C 366.840 164.312,367.776 132.684,353.036 108.244 L 349.824 102.919 374.049 78.608 C 408.084 44.451,407.689 49.312,378.763 20.590 C 368.314 10.216,358.998 1.339,358.059 0.864 C 355.889 -0.235,349.311 -0.215,347.266 0.896 M131.250 26.368 C 122.958 30.511,122.162 53.000,130.093 59.049 C 135.751 63.365,143.125 61.848,147.461 55.477 C 149.965 51.797,150.103 34.663,147.660 30.657 C 144.404 25.316,137.151 23.420,131.250 26.368 M352.160 66.199 L 333.221 85.151 324.029 75.983 L 314.837 66.815 333.777 47.863 L 352.717 28.912 361.908 38.080 L 371.100 47.248 352.160 66.199 M61.149 55.440 C 51.385 59.873,51.725 69.062,62.035 79.404 C 71.023 88.419,77.596 89.711,83.654 83.654 C 89.417 77.891,88.376 71.322,80.363 62.886 C 72.172 54.264,67.624 52.501,61.149 55.440 M269.720 63.457 C 280.064 67.325,282.963 69.671,306.646 93.354 C 335.515 122.224,338.139 126.391,338.865 144.531 C 339.583 162.482,335.936 170.290,318.612 187.891 L 306.308 200.391 252.959 147.041 L 199.609 93.692 212.109 81.388 C 225.602 68.107,230.621 64.769,241.025 62.154 C 248.452 60.287,263.009 60.948,269.720 63.457 M31.461 126.493 C 22.796 130.534,22.676 143.535,31.266 147.850 C 35.531 149.993,51.458 149.817,55.433 147.583 C 63.133 143.255,63.402 132.567,55.950 127.001 C 52.717 124.587,36.281 124.246,31.461 126.493 M150.391 136.483 C 140.129 137.848,135.310 141.092,117.886 158.366 L 102.570 173.552 99.918 171.935 C 96.720 169.986,91.521 169.814,87.888 171.538 C 83.968 173.398,53.351 204.844,48.893 211.588 C 33.212 235.312,32.434 267.665,46.964 291.756 L 50.176 297.081 25.951 321.392 C -0.233 347.670,0.000 347.388,0.000 352.734 C -0.000 358.014,0.043 358.069,20.590 378.763 C 40.958 399.275,41.868 400.000,47.278 400.000 C 52.610 400.000,52.339 400.224,78.586 374.071 L 102.876 349.868 109.646 353.750 C 134.044 367.739,165.056 366.429,189.465 350.377 C 195.277 346.555,226.792 315.632,228.462 312.112 C 230.186 308.480,230.014 303.280,228.065 300.083 L 226.449 297.431 241.252 282.505 C 256.570 267.060,259.338 263.560,261.728 256.613 C 272.487 225.343,240.405 196.934,210.209 210.993 C 205.937 212.982,202.803 215.695,189.292 229.104 L 173.400 244.876 164.262 235.738 L 155.124 226.600 170.896 210.708 C 188.410 193.060,190.458 190.040,192.322 179.102 C 196.435 154.966,175.027 133.208,150.391 136.483 M160.608 161.638 C 166.636 164.375,169.779 170.788,168.018 176.758 C 167.215 179.479,164.412 182.723,152.484 194.734 L 137.929 209.390 128.728 200.213 L 119.527 191.036 133.396 177.146 C 150.595 159.923,153.361 158.346,160.608 161.638 M147.268 253.155 L 200.391 306.310 187.891 318.613 C 170.413 335.815,162.289 339.608,144.531 338.859 C 126.335 338.091,122.111 335.433,93.354 306.659 C 64.484 277.772,61.861 273.604,61.135 255.469 C 60.420 237.612,64.083 229.717,81.155 212.305 C 87.790 205.537,93.428 200.000,93.682 200.000 C 93.937 200.000,118.050 223.920,147.268 253.155 M231.702 232.732 C 237.665 235.440,240.675 241.667,239.010 247.850 C 238.261 250.631,235.762 253.544,223.579 265.835 L 209.041 280.502 199.831 271.316 L 190.621 262.130 204.490 248.171 C 221.559 230.991,224.365 229.399,231.702 232.732 M346.067 251.422 C 335.966 255.899,336.483 271.345,346.831 274.219 C 365.078 279.288,380.920 268.703,373.442 256.438 C 370.379 251.416,353.189 248.266,346.067 251.422 M320.703 313.674 C 310.101 317.425,310.060 327.448,320.603 337.991 C 329.737 347.126,336.115 348.380,342.248 342.248 C 348.091 336.405,347.081 330.033,338.956 321.480 C 331.071 313.179,327.011 311.442,320.703 313.674 M66.223 352.137 L 47.283 371.088 38.092 361.920 L 28.900 352.752 47.840 333.801 L 66.779 314.849 75.971 324.017 L 85.163 333.185 66.223 352.137 M259.078 339.055 C 248.666 342.331,246.732 367.524,256.438 373.442 C 266.595 379.635,275.000 372.118,275.000 356.841 C 275.000 342.698,268.957 335.947,259.078 339.055 " stroke="none" fill="#000000" fill-rule="evenodd" />
</svg>