<svg xmlns="http://www.w3.org/2000/svg" xmlns:xlink="http://www.w3.org/1999/xlink" viewBox="0, 0, 400,400" class="h-8 w-8">
<path
  d="M213.173 13.573 C 177.557 26.210,155.031 56.764,154.650 92.948 L 154.613 96.484 149.630 91.115 C 143.895 84.936,140.696 79.325,138.324 71.289 C 133.929 56.397,125.300 57.533,113.110 74.609 C 78.735 122.764,71.810 176.762,94.289 221.367 C 95.340 223.450,96.087 225.243,95.951 225.349 C 95.815 225.456,93.066 225.959,89.844 226.468 C 64.889 230.406,50.395 255.340,59.314 278.989 C 63.868 291.065,71.704 297.956,88.110 304.312 C 94.752 306.885,94.816 306.752,84.962 310.833 C 65.343 318.956,56.215 332.242,57.245 351.172 C 58.533 374.838,81.736 392.183,104.780 386.706 C 109.147 385.668,143.339 371.596,145.199 370.072 C 148.555 367.321,147.662 361.637,143.654 360.240 C 140.936 359.292,142.640 358.737,122.266 367.204 C 101.485 375.839,100.918 376.013,94.655 375.640 C 71.319 374.252,60.227 346.101,76.601 329.815 C 80.542 325.895,82.994 324.577,98.500 318.047 L 109.891 313.249 144.594 327.391 C 163.681 335.168,179.576 341.800,179.916 342.127 C 180.257 342.455,176.038 344.583,170.541 346.857 C 156.062 352.847,154.552 354.168,156.337 359.289 C 158.222 364.696,160.202 364.340,183.594 354.377 C 190.254 351.540,196.244 349.219,196.905 349.219 C 197.565 349.219,217.901 357.303,242.095 367.184 C 288.742 386.236,292.045 387.300,301.452 386.315 C 329.824 383.345,345.343 354.000,331.891 328.760 C 327.115 319.801,319.008 313.625,304.878 308.183 C 301.760 306.982,299.310 305.899,299.433 305.775 C 299.556 305.652,303.485 303.948,308.164 301.987 C 327.276 293.980,336.140 281.861,336.189 263.672 C 336.246 242.647,318.953 225.000,298.295 225.000 C 296.225 225.000,294.531 224.816,294.531 224.591 C 294.531 224.367,295.747 220.060,297.233 215.021 C 310.012 171.686,307.297 111.470,292.729 115.127 C 288.241 116.253,287.734 118.692,290.049 128.018 C 296.703 154.817,294.398 185.440,283.125 220.008 L 280.264 228.782 270.630 232.750 C 265.332 234.933,260.896 236.720,260.772 236.721 C 260.648 236.722,260.666 233.821,260.812 230.275 C 261.996 201.435,254.069 181.439,231.892 157.323 C 218.961 143.263,214.460 137.716,208.513 128.516 C 200.712 116.446,200.243 115.854,198.169 115.457 C 195.178 114.885,192.503 116.525,183.203 124.627 C 145.730 157.275,127.477 197.493,133.888 233.280 L 134.882 238.826 123.309 234.092 L 111.735 229.357 106.659 219.171 C 84.312 174.331,89.960 126.612,122.963 81.421 L 127.117 75.733 128.772 80.250 C 133.803 93.976,148.152 109.375,155.912 109.375 C 162.426 109.375,166.406 104.444,166.406 96.372 C 166.406 65.362,180.826 42.371,209.157 28.211 C 215.560 25.011,215.780 25.084,214.136 29.883 C 207.097 50.436,206.336 85.299,212.563 101.941 C 220.770 123.876,243.224 113.415,250.254 84.382 C 251.188 80.522,252.232 77.359,252.572 77.353 C 255.278 77.311,271.115 91.784,276.274 99.013 C 281.100 105.774,284.875 107.313,288.281 103.906 C 293.468 98.720,280.809 81.929,261.922 68.941 C 250.095 60.808,242.874 62.531,240.648 74.016 C 238.158 86.860,233.741 96.602,228.747 100.265 C 218.125 108.054,217.063 54.207,227.326 28.170 C 231.937 16.473,225.042 9.362,213.173 13.573 M203.811 142.578 C 207.627 147.734,214.747 156.297,219.633 161.607 C 239.464 183.159,243.309 189.683,247.323 208.594 C 249.165 217.271,249.359 240.044,247.606 241.783 C 246.414 242.965,198.885 263.271,196.841 263.471 C 196.178 263.536,185.074 259.274,172.167 254.000 L 148.699 244.410 146.811 237.244 C 141.015 215.256,146.537 189.426,161.953 166.406 C 173.152 149.683,193.732 128.629,195.856 131.723 C 196.414 132.537,199.994 137.422,203.811 142.578 M157.031 210.156 C 154.649 212.538,154.750 222.707,157.179 224.970 C 162.455 229.886,168.187 223.887,166.959 214.734 C 166.183 208.946,160.748 206.440,157.031 210.156 M228.155 210.304 C 225.529 213.123,225.835 222.752,228.621 224.943 C 233.687 228.928,238.281 225.492,238.281 217.719 C 238.281 209.515,232.699 205.427,228.155 210.304 M185.379 215.216 C 180.400 217.380,181.052 223.105,186.710 226.905 C 193.221 231.278,203.800 230.412,208.901 225.087 C 214.811 218.918,207.950 211.302,200.964 216.276 C 197.910 218.451,195.673 218.383,191.797 215.995 C 188.172 213.763,188.601 213.815,185.379 215.216 M308.277 239.380 C 325.677 247.321,329.937 268.499,316.965 282.572 C 313.366 286.477,310.020 288.298,294.309 294.901 L 283.539 299.427 248.410 285.110 C 229.089 277.237,213.281 270.566,213.281 270.287 C 213.281 269.752,284.514 239.623,290.103 237.794 C 295.010 236.189,302.768 236.866,308.277 239.380 M99.323 238.230 C 103.173 238.861,301.418 319.016,310.426 323.584 C 336.915 337.017,322.929 379.831,293.820 374.417 C 289.971 373.701,90.962 293.184,82.737 289.015 C 60.607 277.797,66.064 243.189,90.728 238.342 C 92.605 237.973,94.316 237.635,94.531 237.590 C 94.746 237.546,96.902 237.833,99.323 238.230 "
  stroke="none"
  fill="#061028"
  fill-rule="evenodd"
/>
</svg>