<svg id="svg" xmlns="http://www.w3.org/2000/svg" xmlns:xlink="http://www.w3.org/1999/xlink" width="400" height="400" viewBox="0, 0, 400,400">
  <g>
    <path id="path0"
    d="M89.096 2.482 C 82.472 6.516,80.470 10.990,80.464 21.769 C 80.456 37.121,74.257 46.861,64.483 46.879 C 52.297 46.902,46.059 57.079,46.107 76.860 C 46.208 118.069,91.889 142.835,127.446 120.957 C 133.450 117.263,134.121 111.681,128.888 108.975 C 126.494 107.737,126.347 107.775,118.788 111.586 C 88.543 126.835,56.974 106.589,58.816 73.124 C 59.323 63.902,60.395 60.292,62.773 59.797 C 63.697 59.605,66.354 59.071,68.678 58.612 C 83.945 55.592,93.469 41.252,92.825 22.250 C 92.469 11.739,97.208 9.074,107.229 14.152 C 126.849 24.093,144.376 65.828,137.899 87.181 C 135.383 95.476,139.011 100.507,145.668 97.952 C 150.409 96.133,152.845 78.670,150.355 64.360 C 143.006 22.133,110.590 -10.610,89.096 2.482 M200.781 52.813 C 175.699 57.294,165.340 72.059,165.208 103.516 C 164.985 156.366,142.937 190.552,109.016 190.644 C 82.841 190.715,72.295 203.925,67.924 242.117 C 58.073 328.200,120.771 399.566,206.250 399.566 C 260.058 399.566,305.960 372.044,329.678 325.561 C 335.785 313.593,335.397 309.375,328.189 309.375 C 324.604 309.375,323.880 310.144,319.554 318.547 C 306.881 343.164,286.824 362.900,262.115 375.063 C 252.450 379.821,251.639 379.843,255.143 375.253 C 270.943 354.553,270.529 323.806,254.006 290.749 C 236.276 255.278,206.920 239.530,191.123 257.016 C 186.857 261.737,186.442 263.283,185.973 276.189 C 185.563 287.474,185.448 288.127,182.975 293.149 C 178.731 301.768,174.942 304.283,163.358 306.167 C 154.152 307.664,149.404 312.524,147.247 322.656 C 143.255 341.406,146.041 358.335,155.442 372.451 C 160.292 379.733,160.331 379.696,151.868 375.786 C 101.999 352.746,72.786 297.821,80.397 241.406 C 84.661 209.800,88.971 204.247,110.156 203.065 C 151.868 200.738,177.144 163.579,177.605 103.906 C 177.793 79.487,182.814 70.499,198.801 65.959 C 218.388 60.396,253.422 77.959,272.418 102.865 L 274.452 105.531 272.338 107.737 C 267.945 112.322,266.016 125.908,268.300 136.172 C 272.508 155.090,286.841 167.889,306.685 170.451 L 313.014 171.268 317.360 183.095 C 330.303 218.321,335.971 254.974,332.117 278.516 C 329.885 292.143,330.203 293.650,335.587 295.002 C 340.574 296.253,342.352 293.365,344.114 281.150 C 348.169 253.050,342.355 214.208,328.660 177.893 L 325.184 168.676 330.133 166.263 C 358.507 152.428,361.465 113.209,336.623 80.224 C 320.123 58.315,294.531 60.265,294.531 83.431 C 294.531 91.573,293.415 95.509,290.114 99.009 L 287.573 101.703 281.653 94.646 C 257.868 66.298,223.836 48.694,200.781 52.813 M316.931 78.971 C 333.483 86.984,346.779 124.586,338.805 140.832 C 327.255 164.363,293.715 164.333,282.558 140.782 C 278.143 131.462,279.027 114.844,283.938 114.844 C 296.595 114.844,307.270 101.158,306.927 85.373 C 306.746 77.056,309.428 75.339,316.931 78.971 M173.508 196.171 C 167.961 198.368,167.742 213.847,173.223 216.344 C 178.551 218.772,181.250 215.498,181.250 206.606 C 181.250 197.325,178.830 194.064,173.508 196.171 M271.109 196.322 C 264.722 199.535,265.967 215.153,272.742 216.805 C 280.963 218.809,282.805 198.074,274.609 195.783 C 273.750 195.543,272.175 195.785,271.109 196.322 M208.878 205.601 C 207.179 206.424,205.469 209.314,205.469 211.363 C 205.469 211.986,206.671 213.826,208.141 215.453 C 216.191 224.364,231.108 224.859,240.118 216.516 C 247.728 209.468,240.055 200.790,232.118 207.468 C 227.167 211.634,221.618 211.483,216.013 207.029 C 212.899 204.554,211.584 204.291,208.878 205.601 M236.009 283.827 C 250.172 305.001,257.639 333.142,253.615 350.183 C 247.392 376.531,219.875 393.364,194.260 386.491 C 188.253 384.879,188.657 385.975,188.782 371.613 C 189.091 336.265,202.661 300.924,224.024 279.834 C 229.910 274.023,229.320 273.826,236.009 283.827"
    fill-rule="evenodd" />
  </g>
</svg>