<svg id="svg" version="1.1" xmlns="http://www.w3.org/2000/svg" xmlns:xlink="http://www.w3.org/1999/xlink" width="400" height="400" viewBox="0, 0, 400,400">
  <path id="path0" d="M181.250 1.105 C 105.874 14.401,64.773 95.593,98.977 163.627 C 133.255 231.806,224.942 246.950,279.118 193.381 C 343.237 129.980,311.759 21.865,223.379 1.939 C 215.553 0.174,189.456 -0.342,181.250 1.105 M214.453 41.116 C 253.828 48.599,280.700 90.337,271.196 129.250 C 257.503 185.312,189.089 204.714,148.438 164.063 C 97.387 113.012,143.256 27.585,214.453 41.116 M87.303 233.105 C 70.764 239.240,39.131 280.148,26.610 311.596 C 10.185 352.847,20.213 384.064,54.083 397.118 L 60.547 399.609 160.938 399.827 C 272.588 400.069,264.878 400.425,270.713 394.759 C 280.313 385.434,277.989 369.164,266.128 362.673 C 263.853 361.427,256.497 361.299,166.406 360.938 C 58.048 360.502,67.024 361.001,61.868 355.128 C 56.879 349.446,56.954 345.000,62.286 330.469 C 70.495 308.096,86.356 284.837,103.040 270.703 C 109.744 265.024,112.332 261.349,113.480 255.878 C 116.601 240.998,101.482 227.845,87.303 233.105 M297.260 233.819 C 281.999 241.118,281.933 257.833,297.115 270.978 C 316.850 288.064,333.881 314.888,340.629 339.514 C 343.949 351.626,338.893 359.016,326.071 360.793 C 310.717 362.920,302.685 376.730,309.281 389.660 C 319.339 409.375,358.909 399.825,374.113 374.012 C 389.755 347.458,378.443 304.671,344.712 262.807 C 324.037 237.146,309.224 228.097,297.260 233.819 " stroke="none" fill="#000000" fill-rule="evenodd">
  </path>
</svg>